<svg width="32" height="32" viewBox="0 0 32 32" fill="none" xmlns="http://www.w3.org/2000/svg">
<rect width="32" height="32" fill="white"/>
<path d="M13.0567 21L15.5 16.2857L20 21L24 20.1429L15.5 12L9 21H13.0567Z" fill="#2D383F"/>
<path d="M13.0567 21L15.5 16.2857L20 21L24 20.1429L15.5 12L9 21H13.0567Z" fill="#2D383F"/>
<path d="M19.8414 7.01322L15.6828 11.2423L18.4317 14.0617L19.8414 12.652C22.8555 15.6523 24.5454 17.3345 27.5595 20.3348C25.7974 25.022 21.2863 28.37 15.9648 28.37C9.12775 28.37 3.59471 22.837 3.59471 16C3.62996 9.163 9.163 3.62996 16 3.62996C22.0617 3.62996 27.1366 8.03524 28.1586 13.7797L31.8943 17.7269C31.9648 17.163 32 16.5639 32 16C32 11.7357 30.3436 7.71806 27.3128 4.68722C24.2819 1.65639 20.2643 0 16 0C11.7004 0 7.71806 1.65639 4.68722 4.68722C1.65639 7.71806 0 11.7004 0 16C0 20.2996 1.65639 24.2819 4.68722 27.3128C7.71806 30.3436 11.7357 32 16 32C20.2643 32 24.2819 30.3436 27.3128 27.3128C29.1806 25.4449 30.5198 23.2247 31.2599 20.7929C31.4009 20.37 31.5066 19.9119 31.6123 19.489L28.37 16.0705L19.8414 7.01322Z" fill="#2D383F"/>
<path d="M19.8414 7.01322L15.6828 11.2423L18.4317 14.0617L19.8414 12.652C22.8555 15.6523 24.5454 17.3345 27.5595 20.3348C25.7974 25.022 21.2863 28.37 15.9648 28.37C9.12775 28.37 3.59471 22.837 3.59471 16C3.62996 9.163 9.163 3.62996 16 3.62996C22.0617 3.62996 27.1366 8.03524 28.1586 13.7797L31.8943 17.7269C31.9648 17.163 32 16.5639 32 16C32 11.7357 30.3436 7.71806 27.3128 4.68722C24.2819 1.65639 20.2643 0 16 0C11.7004 0 7.71806 1.65639 4.68722 4.68722C1.65639 7.71806 0 11.7004 0 16C0 20.2996 1.65639 24.2819 4.68722 27.3128C7.71806 30.3436 11.7357 32 16 32C20.2643 32 24.2819 30.3436 27.3128 27.3128C29.1806 25.4449 30.5198 23.2247 31.2599 20.7929C31.4009 20.37 31.5066 19.9119 31.6123 19.489L28.37 16.0705L19.8414 7.01322Z" fill="#2D383F"/>
</svg>
